<?xml version="1.0" encoding="utf-8"?>
<!-- Generator: Adobe Illustrator 19.2.1, SVG Export Plug-In . SVG Version: 6.00 Build 0)  -->
<svg version="1.1" id="Layer_1" xmlns="http://www.w3.org/2000/svg" xmlns:xlink="http://www.w3.org/1999/xlink" x="0px" y="0px"
	 viewBox="0 0 960 560" style="enable-background:new 0 0 960 560;" xml:space="preserve">
<style type="text/css">
	.st0{fill:#724929;}
	.st1{fill:#89562F;}
	.st2{fill:#F3C898;}
	.st3{fill:#FFFFFF;}
	.st4{fill:#353535;}
	.st5{fill:#FFE537;}
	.st6{fill:#F6A726;}
</style>
<g>
	<path class="st0" d="M482,182.5c38.1,0,73.4,10.6,104.9,28.8c-6.1-15.1-11.7-23.3-11.7-23.3l13.9-5.1c-20.3-19-98.8-12.7-98.8-12.7
		l16.5-13.9c-60.8,1.3-98.7,22.8-98.7,22.8c-17,8.1-30,21-40,36.9C402.3,194.8,442.8,182.5,482,182.5z"/>
	<g>
		<g>
			<g>
				<ellipse class="st1" cx="685.2" cy="329" rx="74.2" ry="79.3"/>
				<ellipse class="st2" cx="685.2" cy="329" rx="51.6" ry="55.2"/>
			</g>
		</g>
		<g>
			<g>
				<ellipse class="st1" cx="273.3" cy="329" rx="74.2" ry="79.3"/>
				<ellipse class="st2" cx="273.3" cy="329" rx="51.6" ry="55.2"/>
			</g>
		</g>
	</g>
	<g>
		<circle class="st0" cx="482.2" cy="357.3" r="187.7"/>
	</g>
	<path class="st2" d="M582.2,249.7c-40.1-33.3-89.5-0.9-101.6,8.1c-12.1-8.9-61.5-41.4-101.6-8.1c-61.7,51.1-40,118.6-16,133.1
		c0,0-49,116.5,117.6,132.8v0c0,0,0,0,0,0c0,0,0,0,0,0v0c166.6-16.3,117.6-132.8,117.6-132.8C622.2,368.2,643.9,300.8,582.2,249.7z"
		/>
	<g>
		<path class="st0" d="M512.6,361.8c-5.1-10.8-30.3-9.4-30.3-9.4s-25.3-1.4-30.3,9.4c-5.1,10.8,13,36.1,30.3,40.4
			C499.6,397.9,517.6,372.6,512.6,361.8z"/>
	</g>
	<rect x="479.3" y="396.8" class="st0" width="6" height="59"/>
	<g>
		<path class="st0" d="M558.1,326.4c0,10.7-8.7,19.3-19.4,19.3s-19.4-8.6-19.4-19.3c0-10.7,8.7-19.3,19.4-19.3
			S558.1,315.7,558.1,326.4z"/>
	</g>
	<g>
		<path class="st0" d="M445.2,326.4c0,10.7-8.7,19.3-19.4,19.3c-10.7,0-19.4-8.6-19.4-19.3c0-10.7,8.7-19.3,19.4-19.3
			C436.5,307.1,445.2,315.7,445.2,326.4z"/>
	</g>
	<g>
		<ellipse class="st3" cx="425.8" cy="326.4" rx="8" ry="7.9"/>
	</g>
	<g>
		<ellipse class="st3" cx="538.7" cy="326.4" rx="8" ry="7.9"/>
	</g>
	<g>
		<path class="st0" d="M510.6,484.8C510.6,484.7,510.6,484.7,510.6,484.8c35.4-21.3,45.3-74.9,45.4-75.1l0.3-1.5
			c0.1,0.4,0.2,0.7,0.3,1.1c0.9,3.1-0.3,6.3,0.9,9.3c0.2,0.5,0.8,0.7,1.3,0.3c2.8-2.6,2.2-7.6,0.7-10.8c-1.9-3.8-5.4-6-9.1-7.9
			c-0.2-0.1-0.3,0.2-0.1,0.3c2.3,1.4,3.9,3.1,5.1,5.3l-2.6,1.4c-44.1,23.2-92.9,14.5-119.5,6.6c-6.2-1.8-11.2-3.6-14.6-5
			c-3.4-1.3-5.2-2.2-5.2-2.2l-2.7-1.2c1.2-0.9,2.3-1.5,3-2.9c0.2-0.5,0-1.2-0.6-1.3c-3.3-0.6-5.8,2.4-7.5,4.9
			c-1.9,2.7-2.1,7.1-1.7,10.3c0,0.2,0.3,0.2,0.3,0c0.8-2.8,1.6-5.5,3.5-7.8c0.7-0.8,1.3-1.6,2-2.4l0.3,2.7c0,0.2,2.4,27,16.4,50.4
			c9.3,15.7,24.1,29.9,46.7,32.8C487.8,494.1,500.3,490.9,510.6,484.8z"/>
		<path class="st4" d="M417.5,424.3c0-0.2-0.1-0.4-0.2-0.7c0.1,0.1,0.1,0.1,0.2,0.2c0.1,0.4,0.1,0.9,0.1,1.3
			C417.6,424.9,417.5,424.6,417.5,424.3z"/>
		<path class="st3" d="M449.8,443.2c0.3-1.4,0.2-2.9,0.2-4.3c0-2.2-0.1-4.4-0.1-6.6c0,0,0-0.1-0.1-0.1c0,0,0,0,0,0.1
			c-0.2,2-0.8,3.8-1.3,5.8c-0.5,1.8-1.8,3.1-2.2,4.9c-4.5-0.4-5.8-1.9-6.3-2.8c-0.2-0.4-0.3-0.8-0.4-1c0-0.1,0-0.2,0-0.2v-0.2
			l-3.4-19.4c4.3,1.2,9,2.4,14.2,3.4c0,0.1,0,0.3-0.1,0.4c-0.2,1.7,0,3.6,0,5.4c0,0,0,0.1,0.1,0.1c0.1,0,0.1,0,0.2-0.1
			c0.7-1.4,1-2.9,1.5-4.4c0.1-0.3,0.2-0.7,0.4-1c8.9,1.7,18.9,3,29.5,3.4c-0.2,2.9,0.6,5.9,1,8.8c0,0.1,0.2,0.1,0.2,0
			c0.3-2.9,1.6-5.7,1.8-8.7c13.8,0.3,28.6-1,43.5-5.1c-2.1,4.4-5.2,11-7.7,16.4c-1,2.3-2.5,3.6-3.9,4.5c-1.2,0.7-2.4,1.1-3.3,1.2
			c-0.2,0.1-0.3,0.1-0.5,0.1c0-3.8-0.5-7.5,0.8-11.1c0.1-0.2-0.2-0.3-0.3-0.1c-1.9,3.4-2.7,7.4-3,11.3
			C501.6,443.9,462.1,443.3,449.8,443.2z"/>
		<path class="st4" d="M449.6,450.6c0-0.2,0-0.4,0-0.7c0.1,0,0.2,0.1,0.2,0.1l-0.2,1.1c0,0,0,0.1-0.1,0.3
			C449.6,451.2,449.6,450.9,449.6,450.6z"/>
		<path class="st3" d="M496.2,486c0.1-0.5,0.1-0.9,0.2-1.4c0.2-1-0.2-2.1-0.4-3.1c-0.1-0.3-0.5-0.3-0.7-0.1c-0.4,0.9-0.8,1.7-1,2.6
			c-0.2,0.7-0.2,1.6-0.2,2.4c-5.9,1.5-12.3,1.9-19.3,1.2c0.1-0.9,0.1-1.9,0.1-2.8c0-0.9-0.4-1.9-0.7-2.7c0-0.1-0.2-0.1-0.2,0
			c-0.9,1.7-1.6,3.4-2.2,5.2c-10-1.6-18.3-5.6-25.1-11c1.7-3.4,3.2-8.2,4.6-12.9c1-3.7,1.9-7.2,2.4-9.2l22.1,2.1
			c-0.1,0.2-0.1,0.4-0.2,0.7c-0.5,5,0,10.3,0.2,15.4c0,0.3,0.4,0.3,0.5,0.1c1.6-4.8,2.8-9.9,4.1-14.9c0.1-0.3,0.1-0.6,0-0.8l21.6,2
			c0.4,0.7,0.8,1.4,1.2,2c4.2,7,8.6,12.9,10.9,15.9c-1.9,1.5-3.8,2.8-5.9,4.1C504.5,482.9,500.5,484.7,496.2,486z"/>
	</g>
	<g>
		<path class="st5" d="M651.4,55.8c14.3,25.7-50.5,53-144.7,60.8c-94.3,7.9-182.3-6.6-196.6-32.3c-14.3-25.7,50.5-52.9,144.7-60.8
			C549,15.6,637,30.1,651.4,55.8z M469.3,40.3c-59.4,4.9-100.3,22.1-91.2,38.3c9,16.2,64.5,25.3,123.9,20.4
			c59.4-5,100.2-22.1,91.2-38.3C584.2,44.4,528.7,35.3,469.3,40.3z"/>
		<g>
			<path class="st6" d="M651.4,55.8c0,0,0.3,0.7,0.9,2c0.5,1.3,1.2,3.4,1,6.1c-0.1,2.8-1.3,6.1-3.7,9.3c-2.4,3.2-5.8,6.4-10,9.3
				c-8.4,5.9-19.9,11.1-33.4,15.9c-13.5,4.8-29.2,8.8-46.4,12.5c-34.6,7.1-75.7,11.7-120,11.6c-22.1-0.1-45.1-1.4-68.3-5.3
				c-11.6-2-23.2-4.6-34.7-8.6c-5.7-2.1-11.4-4.5-16.9-7.7c-5.5-3.2-11-7.2-15-13.8l-1.1-2.4c-0.1-0.3-0.3-0.8-0.5-1.4l-0.5-1.7
				c-0.4-1.2-0.4-2.2-0.5-3.2c-0.1-1-0.1-2.1,0-3.1c0.4-4.1,2.1-7.9,4.1-10.8c4.2-5.9,9.4-9.8,14.7-13.2
				c10.6-6.6,21.8-10.9,33.1-14.5c22.5-7.1,45.2-11.1,67.2-13.7c44-5.1,85.4-5,120.5-1.9c17.6,1.6,33.6,3.7,47.6,6.5
				c14,2.9,26.1,6.1,35.7,9.9c9.6,3.7,16.6,8,20.7,11.7c2,1.8,3.4,3.5,4.2,4.7C651,55.2,651.4,55.8,651.4,55.8z M651.4,55.8
				c0,0-0.4-0.6-1.2-1.8c-0.8-1.2-2.2-2.8-4.2-4.6c-4.1-3.7-11.1-7.9-20.7-11.4c-9.6-3.7-21.7-6.9-35.7-9.3
				c-14.1-2.3-30.1-4.2-47.6-4.9c-35-1.5-76.1,0.3-119.2,7.3c-10.8,1.8-21.6,3.9-32.5,6.5c-10.9,2.6-21.8,5.5-32.5,9.2
				c-10.6,3.8-21.2,8.1-30.4,13.9c-4.5,2.9-8.7,6.4-11.3,10.1c-1.3,1.9-2,3.7-2.1,5.4c-0.1,0.4-0.1,0.8,0,1.3c0,0.4,0,0.9,0.2,1.1
				c0,0.1,0.1,0.3,0.1,0.5c0,0.1,0,0.3,0.2,0.7l0.5,1l0.2,0.5l0.1,0.3c-0.1-0.1,0.3,0.6-0.1-0.2c2.1,3.6,6.1,7,10.7,9.7
				c4.6,2.7,9.7,5,14.9,6.9c10.6,3.8,21.7,6.5,32.8,8.8c22.3,4.3,44.8,6.6,66.6,7.7c43.6,2.1,84.7-0.6,119.3-6.1
				c17.3-2.7,33-6.5,46.6-10.9c13.6-4.3,25.1-9.5,33.5-15.3c4.2-2.9,7.7-6,10-9.2c2.4-3.2,3.6-6.5,3.7-9.2c0.2-2.7-0.5-4.8-1-6.1
				C651.7,56.5,651.4,55.8,651.4,55.8z"/>
			<path class="st6" d="M469.3,40.3c0,0-1.8,0.2-5.3,0.5c-3.4,0.4-8.5,0.9-14.9,1.9c-6.4,0.9-14.2,2.2-22.9,4.4
				c-8.7,2.2-18.6,4.9-28.5,9.6c-4.9,2.3-10,5.1-14.1,8.9c-2,1.9-3.8,4.2-4.3,6.6c-0.6,2.4,0.2,4.5,2.1,6.7c1.6,1.8,4.2,3.6,6.9,4.9
				c2.7,1.4,5.7,2.5,8.7,3.5c6.1,1.9,12.6,3.3,19.3,4.4c13.4,2.1,27.5,2.9,41.9,3.2c14.3,0.1,28.9-0.2,43.4-1.6
				c14.5-1.1,28.9-3.2,42.9-5.9c7-1.4,13.8-3.1,20.4-5.2c6.5-2.1,12.9-4.5,18.3-7.9c2.6-1.7,5.1-3.6,6.5-5.7
				c1.5-2.1,1.7-3.9,0.8-6.1c0-0.1-0.8-1.4-1.1-1.7c-0.4-0.4-0.7-0.9-1.2-1.4c-0.9-1-2.1-1.9-3.3-2.8c-2.4-1.7-5.2-3.2-8-4.4
				c-11.3-5-23.1-7.5-34-9.4c-10.9-1.9-21-2.6-30-3.1c-9-0.5-16.8-0.5-23.3-0.3c-6.5,0.1-11.5,0.4-15,0.6
				C471.1,40.2,469.3,40.3,469.3,40.3z M469.3,40.3c0,0,1.8-0.2,5.3-0.4c3.5-0.2,8.5-0.6,15-0.9c6.5-0.2,14.3-0.4,23.3-0.3
				c9,0.1,19.2,0.6,30.3,1.6c5.5,0.6,11.3,1.3,17.3,2.4c6,1.1,12.1,2.5,18.3,4.7c3.1,1.1,6.2,2.4,9.2,4.2c1.5,0.9,3,1.9,4.4,3.2
				c0.7,0.6,1.4,1.4,2.2,2.2c0.8,1,0.9,1.1,1.7,2.4c1.1,1.8,1.7,4.2,1.6,6.6c-0.1,2.4-0.9,4.6-2,6.5c-2.2,3.8-5.2,6.3-8.2,8.5
				c-12.4,8.6-26.6,13-41,16.7c-14.4,3.6-29.4,5.6-44.3,7.1c-15,1.1-30,1.6-44.7,0.7c-14.8-0.8-29.2-2.5-43.1-5.7
				c-6.9-1.6-13.6-3.6-20.1-6.2c-3.2-1.3-6.3-2.8-9.3-4.7c-3-1.9-5.7-3.9-8.1-7.1c-2.1-2.6-3.5-7.2-2.1-10.8
				c1.2-3.7,3.7-6.1,6.1-8.1c4.9-4,10.4-6.4,15.6-8.5c10.5-4,20.4-6.4,29.3-8.2c8.9-1.7,16.6-3,23-3.8c6.4-0.9,11.5-1.3,14.9-1.7
				C467.5,40.4,469.3,40.3,469.3,40.3z"/>
		</g>
	</g>
</g>
</svg>
