<?xml version="1.0" encoding="utf-8"?>
<!-- Generator: Adobe Illustrator 19.2.1, SVG Export Plug-In . SVG Version: 6.00 Build 0)  -->
<svg version="1.1" id="Layer_1" xmlns="http://www.w3.org/2000/svg" xmlns:xlink="http://www.w3.org/1999/xlink" x="0px" y="0px"
	 viewBox="0 0 960 560" style="enable-background:new 0 0 960 560;" xml:space="preserve">
<style type="text/css">
	.st0{fill:#724929;}
	.st1{fill:#F3C898;}
	.st2{fill:#89562F;}
	.st3{fill:#FFFFFF;}
	.st4{fill:#353535;}
	.st5{fill:#FFE537;}
	.st6{fill:#F6A726;}
</style>
<g>
	<g>
		<path class="st0" d="M480.7,101.5c19.2,0,37,5.3,52.9,14.5c-3.1-7.6-5.9-11.7-5.9-11.7l7-2.6c-10.2-9.6-49.8-6.4-49.8-6.4l8.3-7
			c-30.6,0.6-49.8,11.5-49.8,11.5c-8.6,4.1-15.1,10.6-20.2,18.6C440.4,107.7,460.9,101.5,480.7,101.5z"/>
		<g>
			<path class="st1" d="M670.8,186.5c0,0-3.9-24.7,4.4-27.6c8.2-2.9,13.6,18.4,13.6,18.4s18.4-16.3,25.2-13s19.4,30.4,4.8,46.4
				c-14.5,16-38.7,20.3-44.1,19.4c-5.3-1-12.1-35.7-12.1-35.7L670.8,186.5z"/>
			<g>
				<path class="st0" d="M518.6,289.8c0,0,14.5,16.8,37.6,12.2c23-4.6,127.1-59.2,138.4-76.8c0,0-4.5,1-14.3-1.1
					c0,0,10-8.8,9.3-21.3c0,0-11.5-7.4-21.9-8.2c0,0,14.3-8.1,19.5-9c0,0-16.5-5.8-35.7,3.5c-19.2,9.3-33,42.5-53.2,51
					C577.8,248.7,540.7,265.2,518.6,289.8z"/>
			</g>
		</g>
		<g>
			<path class="st1" d="M289.2,186.5c0,0,3.9-24.7-4.4-27.6s-13.6,18.4-13.6,18.4s-18.4-16.3-25.2-13s-19.4,30.4-4.8,46.4
				c14.5,16,38.7,20.3,44.1,19.4c5.3-1,12.1-35.7,12.1-35.7L289.2,186.5z"/>
			<g>
				<path class="st0" d="M441.4,289.8c0,0-14.5,16.8-37.6,12.2c-23-4.6-127.1-59.2-138.4-76.8c0,0,4.5,1,14.3-1.1
					c0,0-10-8.8-9.3-21.3c0,0,11.5-7.4,21.9-8.2c0,0-14.3-8.1-19.5-9c0,0,16.5-5.8,35.7,3.5c19.2,9.3,33,42.5,53.2,51
					C382.2,248.7,419.3,265.2,441.4,289.8z"/>
			</g>
		</g>
		<g>
			<path class="st0" d="M573,341.8c-4-48.3-41.6-104.7-41.6-104.7l-52.1,2.5l-52.1-2.5c0,0-37.6,56.4-41.6,104.7
				c-4,48.3,15.7,96.7,93.8,96.7C557.4,438.5,577.1,390.1,573,341.8z"/>
			<path class="st1" d="M546,320.9c-2.9-34.4-29.6-74.5-29.6-74.5l-37.1,1.8l-37.1-1.8c0,0-26.7,40.1-29.6,74.5
				c-2.9,34.4,11.1,68.8,66.7,68.8C534.8,389.7,548.8,355.3,546,320.9z"/>
		</g>
		<g>
			<g>
				<g>
					<ellipse class="st2" cx="583.1" cy="175.3" rx="37.4" ry="40"/>
					<ellipse class="st1" cx="583.1" cy="175.3" rx="26" ry="27.8"/>
				</g>
			</g>
			<g>
				<g>
					<ellipse class="st2" cx="375.4" cy="175.3" rx="37.4" ry="40"/>
					<ellipse class="st1" cx="375.4" cy="175.3" rx="26" ry="27.8"/>
				</g>
			</g>
		</g>
		<g>
			<circle class="st0" cx="480.8" cy="189.6" r="94.6"/>
		</g>
		<path class="st1" d="M531.2,135.3c-20.2-16.8-45.1-0.4-51.2,4.1c-6.1-4.5-31-20.8-51.2-4.1c-31.1,25.8-20.1,59.8-8.1,67.1
			c0,0-24.7,58.7,59.3,66.9v0c0,0,0,0,0,0c0,0,0,0,0,0v0c84-8.2,59.3-66.9,59.3-66.9C551.3,195.1,562.3,161.1,531.2,135.3z"/>
		<g>
			<path class="st0" d="M496.1,191.9c-2.5-5.5-15.3-4.7-15.3-4.7s-12.7-0.7-15.3,4.7c-2.5,5.5,6.6,18.2,15.3,20.4
				C489.5,210.1,498.6,197.3,496.1,191.9z"/>
		</g>
		<rect x="479.3" y="209.5" class="st0" width="3" height="29.8"/>
		<g>
			<ellipse class="st0" cx="509.2" cy="174" rx="9.8" ry="9.7"/>
		</g>
		<g>
			<ellipse class="st0" cx="452.3" cy="174" rx="9.8" ry="9.7"/>
		</g>
		<g>
			<ellipse class="st3" cx="452.3" cy="174" rx="4" ry="4"/>
		</g>
		<g>
			<ellipse class="st3" cx="509.2" cy="174" rx="4" ry="4"/>
		</g>
		<g>
			<path class="st0" d="M495,253.9C495.1,253.8,495.1,253.8,495,253.9c17.8-10.7,22.8-37.8,22.9-37.9l0.2-0.7c0,0.2,0.1,0.4,0.2,0.5
				c0.4,1.5-0.2,3.2,0.4,4.7c0.1,0.3,0.4,0.4,0.6,0.2c1.4-1.3,1.1-3.8,0.3-5.4c-1-1.9-2.7-3-4.6-4c-0.1,0-0.1,0.1-0.1,0.1
				c1.2,0.7,2,1.6,2.5,2.7l-1.3,0.7c-22.2,11.7-46.8,7.3-60.3,3.3c-3.1-0.9-5.6-1.8-7.3-2.5c-1.7-0.7-2.6-1.1-2.6-1.1l-1.3-0.6
				c0.6-0.5,1.1-0.8,1.5-1.5c0.1-0.2,0-0.6-0.3-0.6c-1.7-0.3-2.9,1.2-3.8,2.5c-1,1.4-1,3.6-0.8,5.2c0,0.1,0.1,0.1,0.2,0
				c0.4-1.4,0.8-2.8,1.7-3.9c0.3-0.4,0.6-0.8,1-1.2l0.1,1.4c0,0.1,1.2,13.6,8.2,25.4c4.7,7.9,12.1,15.1,23.5,16.5
				C483.5,258.6,489.9,256.9,495,253.9z"/>
			<path class="st4" d="M448.1,223.4c0-0.1,0-0.2-0.1-0.3c0,0,0.1,0.1,0.1,0.1c0,0.2,0,0.4,0.1,0.7
				C448.2,223.7,448.1,223.5,448.1,223.4z"/>
			<path class="st3" d="M464.4,232.9c0.2-0.7,0.1-1.5,0.1-2.2c0-1.1,0-2.2,0-3.3c0,0,0,0,0,0c0,0,0,0,0,0c-0.1,1-0.4,1.9-0.6,2.9
				c-0.2,0.9-0.9,1.6-1.1,2.5c-2.3-0.2-2.9-1-3.2-1.4c-0.1-0.2-0.2-0.4-0.2-0.5c0-0.1,0-0.1,0-0.1v-0.1l-1.7-9.8
				c2.2,0.6,4.6,1.2,7.2,1.7c0,0.1,0,0.1,0,0.2c-0.1,0.9,0,1.8,0,2.7c0,0,0,0.1,0.1,0.1c0,0,0.1,0,0.1,0c0.4-0.7,0.5-1.5,0.7-2.2
				c0-0.2,0.1-0.3,0.2-0.5c4.5,0.9,9.5,1.5,14.9,1.7c-0.1,1.5,0.3,3,0.5,4.4c0,0.1,0.1,0.1,0.1,0c0.1-1.5,0.8-2.9,0.9-4.4
				c7,0.1,14.4-0.5,21.9-2.6c-1,2.2-2.6,5.6-3.9,8.3c-0.5,1.2-1.2,1.8-2,2.3c-0.6,0.4-1.2,0.5-1.7,0.6c-0.1,0-0.2,0-0.2,0.1
				c0-1.9-0.2-3.8,0.4-5.6c0-0.1-0.1-0.2-0.2-0.1c-1,1.7-1.4,3.7-1.5,5.7C490.5,233.2,470.6,233,464.4,232.9z"/>
			<path class="st4" d="M464.3,236.6c0-0.1,0-0.2,0-0.3c0,0,0.1,0,0.1,0l-0.1,0.6c0,0,0,0.1,0,0.2
				C464.3,236.9,464.3,236.8,464.3,236.6z"/>
			<path class="st3" d="M487.8,254.5c0-0.2,0.1-0.5,0.1-0.7c0.1-0.5-0.1-1-0.2-1.5c0-0.1-0.3-0.2-0.3,0c-0.2,0.4-0.4,0.8-0.5,1.3
				c-0.1,0.4-0.1,0.8-0.1,1.2c-3,0.7-6.2,1-9.7,0.6c0.1-0.5,0.1-0.9,0.1-1.4c0-0.4-0.2-0.9-0.3-1.4c0,0-0.1-0.1-0.1,0
				c-0.4,0.9-0.8,1.7-1.1,2.6c-5-0.8-9.2-2.8-12.6-5.6c0.9-1.7,1.6-4.1,2.3-6.5c0.5-1.9,1-3.6,1.2-4.6l11.1,1.1
				c0,0.1-0.1,0.2-0.1,0.3c-0.3,2.5,0,5.2,0.1,7.8c0,0.2,0.2,0.2,0.3,0c0.8-2.4,1.4-5,2-7.5c0-0.2,0-0.3,0-0.4l10.9,1
				c0.2,0.4,0.4,0.7,0.6,1c2.1,3.5,4.3,6.5,5.5,8c-1,0.7-1.9,1.4-3,2.1C492,252.9,490,253.8,487.8,254.5z"/>
		</g>
		<g>
			<path class="st5" d="M566,37.6c7.2,13-25.4,26.7-72.9,30.7c-47.5,4-91.9-3.3-99.1-16.3c-7.2-13,25.4-26.7,72.9-30.6
				C514.4,17.4,558.8,24.7,566,37.6z M474.2,29.8c-29.9,2.5-50.5,11.2-46,19.3c4.5,8.2,32.5,12.8,62.5,10.3
				c29.9-2.5,50.5-11.2,46-19.3C532.2,31.9,504.2,27.3,474.2,29.8z"/>
			<g>
				<path class="st6" d="M566,37.6c0,0,0.2,0.3,0.5,1c0.3,0.7,0.6,1.7,0.5,3.1c-0.1,1.4-0.6,3.1-1.9,4.7c-1.2,1.6-2.9,3.2-5,4.7
					c-4.2,3-10,5.6-16.8,8c-6.8,2.4-14.7,4.5-23.4,6.3c-17.4,3.6-38.2,5.9-60.5,5.9c-11.2,0-22.7-0.7-34.4-2.7
					c-5.8-1-11.7-2.3-17.5-4.4c-2.9-1-5.8-2.2-8.5-3.9c-2.7-1.6-5.5-3.7-7.5-7l-0.6-1.2c-0.1-0.1-0.2-0.4-0.3-0.7l-0.2-0.8
					c-0.2-0.6-0.2-1.1-0.2-1.6c-0.1-0.5,0-1,0-1.6c0.2-2.1,1-4,2.1-5.4c2.1-3,4.8-4.9,7.4-6.6c5.3-3.3,11-5.5,16.7-7.3
					c11.3-3.6,22.8-5.6,33.9-6.9c22.2-2.6,43.1-2.5,60.8-1c8.9,0.8,16.9,1.9,24,3.3c7.1,1.5,13.2,3.1,18,5c4.8,1.9,8.4,4,10.4,5.9
					c1,0.9,1.7,1.8,2.1,2.3C565.8,37.3,566,37.6,566,37.6z M566,37.6c0,0-0.2-0.3-0.6-0.9c-0.4-0.6-1.1-1.4-2.1-2.3
					c-2.1-1.8-5.6-4-10.4-5.8c-4.8-1.9-10.9-3.5-18-4.7c-7.1-1.2-15.2-2.1-24-2.5c-17.7-0.7-38.4,0.2-60.1,3.7
					c-5.4,0.9-10.9,2-16.4,3.3c-5.5,1.3-11,2.8-16.4,4.7c-5.3,1.9-10.7,4.1-15.3,7c-2.3,1.5-4.4,3.2-5.7,5.1c-0.7,0.9-1,1.9-1.1,2.7
					c0,0.2,0,0.4,0,0.6c0,0.2,0,0.4,0.1,0.6c0,0.1,0,0.1,0,0.2c0,0.1,0,0.2,0.1,0.4l0.2,0.5l0.1,0.3l0.1,0.1c0,0,0.1,0.3,0-0.1
					c1,1.8,3.1,3.5,5.4,4.9c2.3,1.4,4.9,2.5,7.5,3.5c5.3,1.9,10.9,3.3,16.5,4.4c11.2,2.2,22.6,3.3,33.6,3.9
					c22,1.1,42.7-0.3,60.2-3.1c8.7-1.4,16.6-3.3,23.5-5.5c6.8-2.2,12.6-4.8,16.9-7.7c2.1-1.5,3.9-3,5.1-4.6c1.2-1.6,1.8-3.3,1.9-4.6
					c0.1-1.4-0.2-2.4-0.5-3.1C566.2,37.9,566,37.6,566,37.6z"/>
				<path class="st6" d="M474.2,29.8c0,0-0.9,0.1-2.7,0.3c-1.7,0.2-4.3,0.5-7.5,0.9c-3.2,0.5-7.1,1.1-11.5,2.2
					c-4.4,1.1-9.4,2.5-14.4,4.8c-2.5,1.2-5,2.6-7.1,4.5c-1,1-1.9,2.1-2.2,3.3c-0.3,1.2,0.1,2.3,1,3.4c0.8,0.9,2.1,1.8,3.5,2.5
					c1.4,0.7,2.8,1.3,4.4,1.8c3.1,1,6.4,1.7,9.8,2.2c6.8,1.1,13.9,1.5,21.1,1.6c7.2,0,14.6-0.1,21.9-0.8c7.3-0.5,14.6-1.6,21.6-3
					c3.5-0.7,7-1.6,10.3-2.6c3.3-1,6.5-2.3,9.2-4c1.3-0.8,2.6-1.8,3.3-2.9c0.8-1.1,0.9-2,0.4-3.1c0-0.1-0.4-0.7-0.5-0.9
					c-0.2-0.2-0.3-0.5-0.6-0.7c-0.5-0.5-1.1-1-1.7-1.4c-1.2-0.9-2.6-1.6-4-2.2c-5.7-2.5-11.7-3.8-17.1-4.7
					c-5.5-0.9-10.6-1.3-15.1-1.6c-4.5-0.3-8.5-0.2-11.8-0.2c-3.3,0.1-5.8,0.2-7.6,0.3C475.2,29.7,474.2,29.8,474.2,29.8z
					 M474.2,29.8c0,0,0.9-0.1,2.7-0.2c1.7-0.1,4.3-0.3,7.6-0.4c3.3-0.1,7.2-0.2,11.8-0.2c4.5,0,9.7,0.3,15.3,0.8
					c2.8,0.3,5.7,0.7,8.7,1.2c3,0.5,6.1,1.2,9.2,2.4c1.6,0.6,3.1,1.2,4.7,2.1c0.8,0.5,1.5,1,2.2,1.6c0.4,0.3,0.7,0.7,1.1,1.1
					c0.4,0.5,0.5,0.6,0.8,1.2c0.6,0.9,0.9,2.1,0.8,3.3c0,1.2-0.5,2.3-1,3.3c-1.1,1.9-2.6,3.2-4.1,4.3c-6.2,4.4-13.4,6.5-20.7,8.4
					c-7.3,1.8-14.8,2.8-22.3,3.6c-7.5,0.5-15.1,0.8-22.6,0.3c-7.4-0.4-14.7-1.3-21.7-2.9c-3.5-0.8-6.9-1.8-10.1-3.1
					c-1.6-0.7-3.2-1.4-4.7-2.3c-1.5-1-2.9-2-4.1-3.6c-1-1.3-1.8-3.6-1.1-5.4c0.6-1.8,1.9-3.1,3.1-4.1c2.5-2,5.2-3.2,7.8-4.3
					c5.3-2,10.3-3.2,14.8-4.1c4.5-0.9,8.4-1.5,11.6-1.9c3.2-0.4,5.8-0.7,7.5-0.8C473.3,29.9,474.2,29.8,474.2,29.8z"/>
			</g>
		</g>
	</g>
	<path class="st0" d="M696.5,433.3l2.6-7.5c0.9-2.7,1.7-5.5,2.1-8.5c0.4-2.9,0.7-5.8,0.7-8.7c0-7.3-1.2-14.2-3.5-20.6
		c-2.5-6.7-6.2-12.6-11.1-17.5c-4.9-4.9-11-8.8-18.1-11.4c-6.8-2.6-14.7-3.9-23.3-3.9c-7.9,0-15.7,1.3-22.7,3.7
		c-4.3,1.5-8.2,3.6-12.2,6V357H481v12.7c-3-3.1-6.1-5.8-9.8-8.1c-5.7-3.4-12.1-5.8-19-7.2c-6.3-1.2-12.5-1.9-18.4-1.9
		c-4.9,0-9.8,0.5-14.4,1.6c-4.3,1-8.5,2.3-12.4,3.9c-3.6,1.5-7,3-9.9,4.5c-2.9,1.5-5.7,2.8-7.7,4l-3.4,1.8V323h-46.1l-1,3.6
		c-2.3-1.1-4.9-2-7.8-2.9c-5.3-1.7-11.5-2.4-19-2.4c-8.7,0-17.1,2-25.1,6c-7.7,3.8-14.7,9.2-20.7,15.9c-5.9,6.7-10.7,14.7-14.2,23.7
		c-3.5,9.1-5.3,19.3-5.3,30.2c0,10.8,1.7,20.7,5,29.5c3.4,8.9,8.1,16.7,14,23.2c6,6.5,13.2,11.6,21.4,15.1
		c8.1,3.5,16.8,5.2,26.1,5.2c8.6,0,16.4-1.7,23-5.1c0.1-0.1,0.2-0.4,0.3-0.5l1.9,3.5h34.1c-0.9,1-1.8,2-2.7,2.9
		c-3.1,3.3-5.4,7.4-6.9,11.9c-1.4,4.1-2.1,8.6-2.1,13.4c0,4,0.6,7.9,1.7,11.7c0.9,3.1,2.3,6,4,8.7l-7.2,15.2l6.7,6.2
		c1.3,1.2,2.8,2.4,4.6,3.6c1.9,1.3,4,2.5,6.4,3.6c2.4,1.1,5.1,2,7.8,2.7c3.1,0.8,6.4,1.2,9.8,1.2c6,0,11.4-0.8,16.1-2.4
		c5.1-1.7,9.4-4.3,13-7.6c3.7-3.4,6.5-7.6,8.3-12.4c0-0.1,0-0.1,0.1-0.2c1.9,1.5,4.1,2.7,6.4,3.6c3.8,1.5,8,2.2,12.9,2.2
		c3,0,5.8-0.2,8.3-1.2h14.3h21.5H524v-4.7c2,1.5,4.2,2.8,6.7,3.7c3.8,1.5,8,2.2,13,2.2c3,0,5.8-0.2,8.4-1.2h35v-37h-4v-32h-11.8
		l17-37c0.9,5.1,2.3,9.8,4.3,14.1c3.5,7.5,8.1,13.7,13.7,18.6c5.5,4.8,11.9,8.4,18.8,10.7c6.6,2.2,13.4,3.3,20.1,3.3
		c10.2,0,19.5-1.3,27.8-3.9c8.7-2.7,17-7.5,24.7-14l9.5-8.2L696.5,433.3z M318,382v31.3c0-0.3-0.5-0.7-0.8-1c-1.2-1.7-2-3.7-2.7-6.1
		c-0.7-2.8-1.1-5.8-1.1-9.1c0-3,0.4-6,1.2-8.8c0.8-2.6,1.8-4.8,3-6.6c1.1-1.5,2.3-2.7,3.8-3.6c1-0.6,1.9-0.9,3.1-0.9
		c0.8,0,1.6,0.2,2.3,0.5c0.8,0.3,1.6,0.9,2.3,1.6c0.6,0.6,1.2,1.3,1.6,2.5c0,0.1,0.1,0.2,0.1,0.2H318z M502.1,420H492v-17h1.7
		L502.1,420z M392.6,459.6c0.6,0.5,1.1,1,1.7,1.5c-0.6,0-1.1,0-1.7,0.1V459.6z M503,462v-37.6l18.2,34.6h-1.6c-3.5,0-6.4,0.8-9,1.5
		c-1.1,0.3-2.2,1.5-3.2,1.5H503z"/>
	<g>
		<g>
			<path class="st1" d="M346.6,437.1c-2,3.2-5.4,6.1-10.3,8.6c-4.9,2.5-10.7,3.8-17.4,3.8c-7.6,0-14.6-1.4-21.2-4.2
				c-6.5-2.8-12.2-6.9-17.1-12.1c-4.9-5.3-8.7-11.6-11.5-19.1c-2.8-7.5-4.2-15.8-4.2-25.1c0-9.4,1.5-18,4.5-25.7
				c3-7.7,6.9-14.4,11.9-20c4.9-5.6,10.5-9.9,16.9-13c6.3-3.1,12.8-4.6,19.6-4.6c6.2,0,11.3,0.6,15.3,1.9c4,1.3,7.3,2.7,9.7,4.3
				c2.5,1.6,4.3,3.2,5.6,4.8c1.3,1.6,2.2,2.8,2.9,3.4l3.6-12.4h25.6v50.7h-30.8c-0.1-3.4-0.7-6.5-1.8-9.3c-1.1-2.8-2.6-5-4.4-6.9
				c-1.8-1.8-3.9-3.2-6.2-4.2c-2.3-1-4.7-1.5-7.2-1.5c-3.4,0-6.6,0.9-9.5,2.7c-2.9,1.8-5.4,4.1-7.5,7.1c-2.1,2.9-3.7,6.4-4.8,10.3
				c-1.1,4-1.7,8.1-1.7,12.3c0,4.4,0.5,8.5,1.5,12.3c1,3.8,2.5,7.2,4.6,10.1c2,2.9,4.5,5.1,7.4,6.8c2.9,1.7,6.3,2.5,10.1,2.5
				c4.9,0,8.6-0.8,11-2.5c2.4-1.7,4.2-3.6,5.5-5.9v-7.2h-10.5v-18.4h57.1v18.4h-6.9v43H352L346.6,437.1z"/>
			<path class="st1" d="M402,369.1c1.7-1,3.9-2.2,6.5-3.6c2.6-1.4,5.6-2.7,8.9-4c3.3-1.3,6.8-2.4,10.5-3.3c3.7-0.9,7.6-1.3,11.6-1.3
				c5.2,0,10.5,0.5,16,1.6c5.5,1.1,10.5,3,15.1,5.7c4.5,2.7,8.3,6.3,11.2,10.9c2.9,4.6,4.4,10.3,4.4,17.2v33.5h10.3v22h-36.8
				l-4.1-7.7c-1.6,2.2-3.4,4-5.4,5.4c-2,1.4-4.1,2.5-6.2,3.4c-2.1,0.8-4.2,1.4-6.3,1.7c-2.1,0.3-3.8,0.5-5.3,0.5
				c-4.1,0-8.2-0.6-12.2-1.7c-4-1.1-7.6-2.9-10.8-5.2c-3.2-2.3-5.8-5.2-7.8-8.9c-2-3.6-3-7.9-3-13c0-4.8,0.9-9.2,2.8-13.1
				c1.9-3.9,4.5-7.2,7.7-10c3.3-2.8,7.1-4.9,11.4-6.4c4.4-1.5,8.9-2.2,13.8-2.2c2.5,0,4.8,0.3,6.8,0.8c2,0.5,3.7,1.1,5.2,1.8
				c1.4,0.7,2.6,1.4,3.4,2.1c0.9,0.7,1.4,1.1,1.6,1.4v-6c0-3.9-1.5-6.5-4.6-7.7c-3.1-1.3-7-1.9-11.7-1.9c-5.2,0-9.9,0.9-14.2,2.6
				c-4.3,1.7-8.1,3.5-11.4,5.3L402,369.1z M440.2,428.8c2.6,0,4.9-0.6,6.9-1.9c1.9-1.3,3.3-2.5,4.1-3.8v-6.5
				c-0.1-0.2-0.4-0.6-0.8-1.1c-0.4-0.5-1-1.1-1.8-1.6c-0.8-0.6-1.8-1.1-3-1.5c-1.2-0.5-2.7-0.7-4.6-0.7c-3.4,0-6,0.9-7.6,2.6
				c-1.6,1.7-2.4,3.9-2.4,6.5c0,2.4,0.9,4.4,2.6,5.8C435.4,428.1,437.5,428.8,440.2,428.8z"/>
			<path class="st1" d="M555.8,420.1c0-0.9,0.1-2.1,0.4-3.5c0.3-1.4,0.7-3,1.1-4.7c0.5-1.7,1-3.5,1.6-5.3c0.6-1.8,1.3-3.6,2-5.3
				l8.3-17.4h-9.1v-21.8h44.4v21.8h-8.9l-29.8,64.2h-26.7l-32-64.2H499v-21.8h52.3v21.8h-8.6l7.9,18.2c1.1,3.3,2.1,6.7,2.9,10.1
				c0.8,3.4,1.3,6.1,1.5,7.9H555.8z"/>
			<path class="st1" d="M695.1,436.1c-6.4,5.5-13.2,9.4-20.3,11.6c-7.1,2.2-15.1,3.4-24.1,3.4c-5.4,0-10.8-0.9-16.2-2.7
				c-5.4-1.8-10.2-4.5-14.5-8.3c-4.3-3.7-7.8-8.5-10.6-14.4c-2.8-5.9-4.1-13-4.1-21.2c0-7,1.2-13.3,3.6-18.8
				c2.4-5.6,5.7-10.3,9.8-14.2c4.1-3.9,9-6.8,14.6-8.9c5.6-2,11.7-3,18.2-3c7.1,0,13.4,1,18.8,3.1c5.4,2.1,10,4.9,13.7,8.6
				c3.7,3.7,6.4,8,8.3,13c1.8,5,2.8,10.4,2.8,16.3c0,2.3-0.2,4.6-0.5,6.8c-0.3,2.2-0.9,4.3-1.5,6.3h-54.2c0.2,1.1,0.6,2.5,1.1,4.1
				c0.5,1.6,1.4,3.2,2.7,4.6c1.3,1.5,3,2.8,5.2,3.8c2.2,1,5.1,1.5,8.8,1.5c1.5,0,3.1-0.1,4.9-0.2c1.8-0.1,3.7-0.5,5.8-1
				c2.1-0.6,4.2-1.4,6.5-2.5c2.3-1.1,4.6-2.6,6.9-4.6L695.1,436.1z M652.6,382.7c-2.6,0-4.8,0.5-6.4,1.5c-1.7,1-3,2.3-4,3.7
				c-1,1.4-1.7,3-2.1,4.6c-0.4,1.6-0.7,2.9-0.8,4h26c0-1.6-0.2-3.2-0.5-4.9c-0.3-1.7-0.9-3.2-1.8-4.5c-0.9-1.3-2.1-2.4-3.8-3.2
				C657.6,383.1,655.3,382.7,652.6,382.7z"/>
		</g>
		<path class="st6" d="M385,510.8c0.5,0.5,1.3,1,2.3,1.6c1,0.6,2.2,1.2,3.6,1.8c1.3,0.6,2.8,1.1,4.4,1.5c1.6,0.4,3.3,0.6,5,0.6
			c2,0,3.6-0.3,4.9-0.8c1.3-0.5,2.3-1.2,3.1-2c0.8-0.8,1.3-1.7,1.7-2.6c0.3-1,0.5-1.9,0.5-2.9v-3c-0.3,0.4-0.7,0.9-1.3,1.5
			c-0.6,0.6-1.3,1.1-2.2,1.6c-0.9,0.5-1.8,0.9-3,1.3c-1.1,0.4-2.4,0.5-3.8,0.5c-3.8,0-7.1-0.6-9.7-1.9c-2.7-1.3-4.8-2.9-6.5-5
			c-1.7-2.1-2.9-4.4-3.7-7c-0.8-2.6-1.2-5.3-1.2-8.1c0-3.4,0.5-6.5,1.4-9.3c0.9-2.8,2.3-5.2,4.2-7.1c1.8-2,4.2-3.5,6.9-4.6
			c2.8-1.1,6-1.6,9.6-1.6c1.9,0,3.8,0.4,5.5,1.1c1.7,0.8,3,1.6,3.9,2.5l1.8-2.7h21v11.5H428v26.3c0,3.6-0.6,6.9-1.7,9.9
			c-1.1,3-2.8,5.5-5.1,7.6c-2.3,2.1-5.2,3.8-8.6,4.9c-3.4,1.2-7.5,1.8-12.1,1.8c-2.4,0-4.7-0.3-6.7-0.8c-2.1-0.5-4-1.2-5.7-2
			c-1.7-0.8-3.2-1.6-4.5-2.5c-1.3-0.9-2.3-1.7-3.2-2.5L385,510.8z M397.9,487.9c0,1.4,0.1,2.7,0.4,4c0.3,1.3,0.7,2.4,1.3,3.4
			c0.6,1,1.2,1.8,2,2.5c0.8,0.6,1.6,1,2.6,1c1.6,0,3.1-0.9,4.4-2.7c1.3-1.8,1.9-4.3,1.9-7.5c0-1.6-0.1-3.2-0.4-4.6
			c-0.3-1.4-0.7-2.6-1.3-3.7c-0.6-1.1-1.2-1.9-2-2.5c-0.8-0.6-1.7-0.9-2.6-0.9c-1.9,0-3.4,1-4.5,3
			C398.5,481.8,397.9,484.5,397.9,487.9z"/>
		<path class="st6" d="M435.9,466.3h21.3v21.2c0,3.8,0.3,6.6,1,8.4c0.7,1.8,1.9,2.7,3.7,2.7c1.5,0,2.8-0.6,3.9-1.8
			c1.1-1.2,1.6-2.8,1.6-4.8v-14h-5.8v-11.6h22.8v32.3h4.3v11.7h-16.6l-2.4-5.5c-0.5,0.5-1,1.2-1.7,2c-0.7,0.8-1.5,1.5-2.5,2.2
			c-1,0.7-2.1,1.3-3.5,1.8c-1.4,0.5-3,0.7-4.8,0.7c-3.3,0-6.2-0.4-8.4-1.3c-2.3-0.9-4.1-2.2-5.5-4c-1.4-1.8-2.4-4-3-6.7
			c-0.6-2.7-0.9-5.9-0.9-9.5v-12.2h-3.7V466.3z"/>
		<path class="st6" d="M517.3,510.3h-24.9v-11.5h3.9v-21h-3.8v-11.4H509l2.6,5.6c0.6-1.1,1.2-2.1,1.8-3c0.6-0.9,1.5-1.8,2.5-2.5
			c1-0.7,2.2-1.3,3.7-1.7c1.5-0.4,3.3-0.6,5.6-0.6v15.9c-4,0-7.1,0.7-9.2,2c-2.1,1.3-3.2,3.9-3.2,7.8v9.1h4.4V510.3z"/>
		<path class="st6" d="M527.9,466.3h21.3v21.2c0,3.8,0.3,6.6,1,8.4c0.7,1.8,1.9,2.7,3.7,2.7c1.5,0,2.8-0.6,3.9-1.8
			c1.1-1.2,1.6-2.8,1.6-4.8v-14h-5.8v-11.6h22.8v32.3h4.3v11.7h-16.6l-2.4-5.5c-0.5,0.5-1,1.2-1.7,2c-0.7,0.8-1.5,1.5-2.5,2.2
			c-1,0.7-2.1,1.3-3.5,1.8c-1.4,0.5-3,0.7-4.8,0.7c-3.3,0-6.2-0.4-8.4-1.3c-2.3-0.9-4.1-2.2-5.5-4c-1.4-1.8-2.4-4-3-6.7
			c-0.6-2.7-0.9-5.9-0.9-9.5v-12.2h-3.7V466.3z"/>
	</g>
</g>
</svg>
